<!DOCTYPE svg PUBLIC "-//W3C//DTD SVG 1.1//EN" "http://www.w3.org/Graphics/SVG/1.1/DTD/svg11.dtd" [
	<!ENTITY ns_flows "http://ns.adobe.com/Flows/1.0/">
]><svg xmlns="http://www.w3.org/2000/svg" width="98" height="85" viewBox="0 0 98 85" overflow="visible"><path d="M97.25 51.25c-2.02 4.98-8.33 5.67-14 7-.61 6.29 3.05 10.95-1 16-6.41-.26-7.47-5.86-7-13h-3c-2.09 2.77.9 4.52 0 8-1.12 4.34-7.88 7.91-11 7-2.18-.64-5.96-6.63-5-12 2.82-2.71 2.76 3.12 6 3 5.05-7.84-9.63-8.55-8-17 1.24-6.42 11.66-9.66 15-1 1.54 4.21-5.17.16-5 3-.28 1.62.95 1.72 1 3 2.52.77 1.68-2.16 3-3 1.86-1.17 3.09-.75 6-1 2.45-2.55 1.08-8.92 4-11 3.87.46 6.08 2.59 6 7 7.01-.89 10.3-.95 13 4zM87.25 13.25c.61 3.21 2.32 4.98 2 8-.34 3.21-2.9 8.83-4 9-1.17.18-1.34 1.78-2 2-4.66 1.57-12.39-1.48-14-7-1.16-3.97 1.9-13.37 4-17 1.3-2.25 1.22-2.99 5-4 2.41-.65 3.65-2.25 6 0 .47.45 1.3.49 1.85.89-.2 0 2 3.14 2.15 4.11.32 2.07-1.23 2.78-1 4zm-8 9c1.78-1.89 3.29-4.04 3-8-4.51-1.67-7.33 7.3-3 8z"/><path d="M67.25 21.25c-.07 5.81 2.48 10.7 0 15-6.73 1.06-7.24-4.1-11-6-1.94 1.39-1.49 5.18-3 7-3.78.44-4.69-1.97-7-3 2.47-7.81 1.26-18.98 2-26 8.58-.58 7.68 8.32 12 12 .52-4.34-.36-15.52 3-20 7.33 3.29 4.09 12.99 4 21zM52.25 55.25c1.93 8.41.12 22.69-12 20-1.59-.35-8.42-5.22-9-7-1.62-5 .34-13.34 3-16 5.03-5.03 11.48-1.64 18 3zm-13 11c4.55.96 6.3-4.2 4-7-3.63.03-4.39 2.94-4 7zM39.25 8.25c5.58.9 6.4 6.81 5 15-1.43 8.38-3.02 14.59-9 15-9.57.65-12.25-16.69-9-29 8.32 1.27 6.59 10.36 6 17 2.71.83 2.2-.85 3-2 2.05-2.96 2.82-10.39 4-16z"/><path d="M28.25 62.25c.1 5.67 4.4 11.33 2 17-4.32-1.01-6.57-4.09-9-7-3.15-.48-2.26 3.07-6 2-.67 5.06 2.29 7.57-1 10-4.7-.63-6.66-4-8-8-2.61-1.38-5.48-2.52-6-6 .14-3.53 4.48-2.85 7-4 .47-5.53-1.41-13.41 2-16 8.31.49 8.21 7.13 7 15 4.36.29 4.94-4.35 5-7 .06-2.43-1.82-8.26 2-11 3.06-.73 2.94 1.73 6 1 3.35 4.7-1.08 9.44-1 14zM24.25 12.25c1.07 7.07-3.86 8.14-6 12 .21 6.88-.47 12.86-2 18-5.86-1.32-8.7-10.38-6-17-.33-3.52-5.26-4.22-7-8-.3-.66-.47-4.43-1-7-.91-4.37-1.45-5.69 1-9 8.16-.49 7.21 8.13 9 14 5.05.39 3.91-5.42 8-6 .98 1.35 2.67 2 4 3z"/></svg>